<svg xmlns="http://www.w3.org/2000/svg" xmlns:xlink="http://www.w3.org/1999/xlink" viewBox="0,0,256,256" width="32px" height="32px" fill-rule="nonzero"><g fill="#7c7c7c" fill-rule="nonzero" stroke="none" stroke-width="1" stroke-linecap="butt" stroke-linejoin="miter" stroke-miterlimit="10" stroke-dasharray="" stroke-dashoffset="0" font-family="none" font-weight="none" font-size="none" text-anchor="none" style="mix-blend-mode: normal"><g transform="scale(8,8)"><path d="M16.00195,2.99805c-7.177,0 -13,5.824 -13,13c0,7.178 5.822,13.001 13,13c7.176,0 13,-5.823 13,-13c0,-7.176 -5.824,-13 -13,-13zM16.00195,4.99805c6.071,0 11,4.929 11,11c0,6.072 -4.93,11.001 -11,11c-6.072,0 -11,-4.928 -11,-11c0,-6.071 4.928,-11 11,-11zM16,9.00195c-0.37337,0 -0.74742,0.20102 -0.91992,0.60352l-5.31055,12.39258h2.17578l2.19727,-5.125l5.93555,4.89844c0.804,0.664 1.96664,-0.20602 1.55664,-1.16602l-4.71484,-11c-0.173,-0.4025 -0.54655,-0.60352 -0.91992,-0.60352zM16,12.53711l2.17188,5.06836l-3.20898,-2.64844z"></path></g></g></svg>