<svg xmlns="http://www.w3.org/2000/svg" xmlns:xlink="http://www.w3.org/1999/xlink" viewBox="0,0,256,256" width="48px" height="48px" fill-rule="nonzero"><g fill="none" fill-rule="nonzero" stroke="none" stroke-width="1" stroke-linecap="butt" stroke-linejoin="miter" stroke-miterlimit="10" stroke-dasharray="" stroke-dashoffset="0" font-family="none" font-weight="none" font-size="none" text-anchor="none" style="mix-blend-mode: normal"><g transform="scale(5.33333,5.33333)"><path d="M15.2,33.5c-0.5,0.3 -8.2,5.2 -8.2,5.5c0,0.4 0,0.4 0,0.4l1.4,3.6h31.2c0,0 1.5,-4.8 1.4,-6c0,-0.6 -5,-3.9 -5,-3.9c0,0 3.9,-3.9 4,-12.4c0,-0.8 0,-1.6 -0.1,-2.4c-0.7,-9.6 -6.8,-13 -13.2,-13.3c-6.5,-0.2 -10.1,2.8 -10.1,2.8c0,0 -4.1,1.4 -4.5,4.7c0,0 -3.2,0.6 -1.5,7.1c-1.3,1 -1.6,2.4 -1.6,3.4c0,1.3 0.4,2.8 1.2,3.7c1.7,1.8 3.1,1.4 3.1,1.4c0,0 0.6,3.2 1.9,5.4z" fill="#616161"></path><path d="M36.8,36.9c-0.2,-1.3 -0.8,-1.9 -2.1,-1.9h-0.1h-0.1c-0.4,0.1 -1,0.3 -2.7,1.5l-1,0.7c-0.2,-0.1 -0.5,-0.2 -0.8,-0.2c-0.5,0 -0.9,0.2 -1.3,0.5l-1,-0.5l-1.7,-0.9c-0.9,-0.4 -1.8,-0.7 -2.5,-0.7c-0.5,0 -0.9,0.1 -1.3,0.3c-0.5,0.4 -0.7,1 -0.6,1.8c0,0.4 0.1,0.9 0.1,1.3c0.2,2.1 0.3,3.6 2.3,3.7c0.1,0 0.2,0 0.3,0c1.1,0 2.4,-0.4 3.6,-1.3l0.9,-0.6c0.3,0.2 0.7,0.4 1.1,0.4c0.5,0 0.9,-0.2 1.2,-0.4l1.4,0.3c0.6,0.1 1.1,0.2 1.6,0.2h0.4c0.5,0 1,0 1.5,-0.3c0.6,-0.3 0.9,-1 0.9,-2.1c0,-0.5 -0.1,-1 -0.1,-1.4z" fill="#5d5d5d"></path><path d="M21.7,38.9c0,-0.4 -0.1,-0.8 -0.1,-1.3c-0.1,-0.6 0,-1 0.2,-1.4c-5,-0.1 -6.6,-2.7 -6.6,-2.7c0,0 -0.3,1.6 1.1,3.4c2.1,2.5 5.3,2.8 5.3,2.8h0.2c0,-0.2 0,-0.5 -0.1,-0.8z" fill="#616161"></path><path d="M22.9,43l-0.7,-1.4c-0.1,-0.3 -0.2,-0.6 -0.3,-1.1l-0.1,-0.7l-0.7,-0.1c-0.9,-0.2 -3.1,-0.8 -4.7,-2.7c-0.5,-0.6 -0.8,-1.3 -1,-2l-0.4,-1.3l-1.1,0.7c-2,1.3 -5.3,3.4 -6.4,4.3l-0.6,0.5l1.5,3.8h14.5z" fill="#535353"></path><path d="M12.2,43h10.7l-0.7,-1.4c-0.1,-0.3 -0.2,-0.6 -0.3,-1.1l-0.1,-0.7l-0.7,-0.1c-0.9,-0.2 -3.1,-0.8 -4.7,-2.7c-0.1,-0.1 -0.2,-0.3 -0.3,-0.4l-5.1,3.4z" fill="#646464"></path><path d="M40.7,36.5c-0.6,-0.6 -2.4,-1.9 -3.1,-2.4l-0.7,-0.5c-0.2,0.2 -0.6,0.7 -1.3,1.2l0.7,0.7c0.3,0.3 0.5,0.8 0.6,1.3v0.3c0.1,0.4 0.1,0.9 0.1,1.4c0,1.7 -0.6,2 -0.9,2.1c-0.2,0.1 -0.5,0.2 -0.8,0.2l0.1,2h4.1l0.2,-0.7c0.5,-1.6 1.1,-3.9 1.2,-4.9v-0.5z" fill="#535353"></path><path d="M39.6,43l0.2,-0.7c0.3,-0.8 0.5,-1.9 0.8,-2.8l-3.7,-2c0,0.3 0.1,0.7 0.1,1.1c0,1.7 -0.6,2 -0.9,2.1c-0.2,0.1 -0.5,0.2 -0.8,0.2l0.1,2l4.2,0.1z" fill="#646464"></path><path d="M10.3,19.8c0,0 0.1,-0.1 0,0v0l0.1,-0.1c0.5,-0.4 1.2,-0.7 1.8,-0.7c0.6,0 0.9,0.2 1.2,0.3c1.3,0.7 1.6,2 1.7,2.9v0v0.1v0.1c0.6,-0.2 1.2,-0.4 1.4,-0.5c0,-0.1 0,-0.3 -0.1,-0.6c-0.1,-0.4 -0.2,-0.9 -0.4,-1.4c-0.4,-1.1 -0.3,-2.5 0.3,-4.3l0.1,-0.2c0.1,-0.4 0.3,-0.8 0.3,-1.1c0,-0.3 0.1,-0.6 0.1,-0.7c0,-0.3 -0.1,-0.5 -0.2,-0.8l-0.2,-0.5l0.3,-0.5c0.9,-1.5 4.2,-6.5 10.9,-6.5c0.2,0 0.4,0 0.7,0h-0.2c-0.4,-0.2 -0.9,-0.3 -1.4,-0.3c-0.2,0 -0.5,0 -0.7,0v0c-5.4,0 -8.7,2.3 -9.3,2.7l-0.1,0.1l-0.1,0.1c-0.6,0.2 -3.7,1.5 -4.3,4.2l-0.2,0.3l-0.4,0.2c-0.4,0.2 -0.7,0.5 -0.9,0.9c-0.7,1.2 -0.8,3 -0.3,5.5l0.1,0.5l-0.4,0.5l-0.1,0.1c0.1,-0.1 0.2,-0.2 0.3,-0.3z" fill="#616161"></path><path d="M28,41h6v2h-6zM14.2,22.4c-0.1,-0.9 -0.4,-1.7 -1.1,-2.1c-0.3,-0.1 -0.5,-0.2 -0.8,-0.2c-0.5,0 -1.1,0.2 -1.6,0.9l-0.7,-2c0.9,-0.5 1.7,-0.8 2.5,-0.8c0.5,0 1,0.1 1.5,0.3c0.4,0.2 0.8,0.5 1.1,0.8c-0.2,-1.4 0.1,-2.9 0.5,-4.1c0.2,-0.5 0.3,-1 0.4,-1.3c0.1,-0.6 0,-0.7 -0.2,-1c-1.9,0.2 -3.5,0.7 -3.5,0.7l-0.5,-1.9c0.1,0 2.1,-0.6 4.4,-0.8l0.7,-0.1l0.3,0.6c0,0 0.1,0.1 0.1,0.2c0.3,0.3 0.7,0.9 0.8,1.9c0,0.2 0,0.6 -0.1,0.9c-0.1,0.5 -0.3,0.9 -0.4,1.5c-0.4,1.2 -0.7,2.6 -0.3,3.6c0.2,0.6 0.3,1.2 0.4,1.6c0.1,0.4 0.2,1.3 -0.2,1.6c-0.4,0.3 -2.7,1 -2.7,1c0,0 -0.5,-0.4 -0.6,-1.3z" fill="#2e2e2e"></path><path d="M17.5,12.6l-1.8,-0.8c0,-0.1 3.7,-8.2 13,-7.6l-0.1,2c-8,-0.4 -11.1,6.4 -11.1,6.4z" fill="#2e2e2e"></path><path d="M22,36.2c-5.1,0 -6.8,-2.7 -6.8,-2.7c0,0 -0.3,1.6 1.1,3.4c2.1,2.5 5.3,2.8 5.3,2.8" fill="#616161"></path><path d="M21.5,40.7c-0.1,0 -3.6,-0.4 -5.9,-3.2c-1.7,-2.2 -1.4,-4 -1.3,-4.2l0.5,-2.6l1.4,2.3c0.1,0.1 1.5,2.2 5.9,2.2v2c-2.1,0 -3.7,-0.4 -4.9,-1c0,0 0,0 0,0.1c1.8,2.1 4.5,2.4 4.6,2.4zM34.7,42c-0.1,0 -0.2,0 -0.3,0c-1.8,0 -3.5,-0.6 -3.6,-0.6l0.7,-1.9c0,0 1.4,0.5 2.8,0.5h0.1c0.5,0 1,0 1.3,-0.1c0.3,-0.2 0.3,-0.9 0.3,-1.3c0,-0.4 -0.1,-0.9 -0.1,-1.3v-0.3c-0.1,-0.8 -0.4,-1.1 -1.2,-1.1c-0.6,0.1 -2.5,1.5 -3.2,2l-0.5,0.4l-1.2,-1.6l0.4,-0.3c1.9,-1.4 3.4,-2.4 4.4,-2.4c1.8,0 2.9,1 3.2,2.8v0.3c0.1,0.4 0.1,1 0.2,1.5c0,1.5 -0.4,2.6 -1.4,3c-0.7,0.4 -1.3,0.4 -1.9,0.4z" fill="#2e2e2e"></path><path d="M24.3,43.6c-0.1,0 -0.2,0 -0.3,0c-2.9,-0.2 -3.1,-2.5 -3.2,-4.6c0,-0.4 -0.1,-0.8 -0.1,-1.2c-0.2,-1.6 0.5,-2.4 1,-2.8c1.3,-0.9 3.3,-0.5 4.8,0.2l3,1.6l-0.9,1.8l-3,-1.6c-1.2,-0.6 -2.4,-0.7 -2.7,-0.4c-0.2,0.2 -0.2,0.6 -0.2,0.9c0.1,0.4 0.1,0.9 0.1,1.3c0.2,2.4 0.4,2.7 1.4,2.8c2.1,0.2 4.2,-1.8 4.2,-1.9l1.4,1.4c-0.2,0.2 -2.6,2.5 -5.5,2.5zM21,15.4c0,0 -0.2,0.6 -0.6,0.6c-0.2,0 -0.4,-0.4 -0.4,-0.8c0,-1.2 0.8,-2.7 1.6,-3.4c0.6,-0.5 1.4,-0.8 2.3,-0.8c0.4,0 0.9,0 1.3,0.2c0.5,0.2 0.8,0.6 0.8,1.4c0,0 0,0.4 -1.3,0.4c-0.8,0 -1.8,0.1 -2.2,0.5c-0.4,0.4 -1,0.8 -1.5,1.9zM26.4,21c-0.5,0 -1.1,-0.1 -1.6,-0.2c-0.6,-0.1 -0.9,-0.7 -0.7,-1.2l0.2,-0.3c0.1,-0.2 0.3,-0.3 0.5,-0.3c0.1,0 0.2,0 0.3,0c0.8,0.2 2,0.2 2.4,0.2c-0.5,-1.9 -0.4,-3.3 -0.1,-3.3c0.3,0 1.1,2.3 1.5,2.8c0.4,0.5 0.3,1.1 -0.1,1.5c-0.7,0.6 -1.5,0.8 -2.4,0.8zM36.4,21c-0.2,0 -0.3,0 -0.5,0c-0.6,-0.1 -0.9,-0.5 -0.9,-1.1c0,0 0.1,-0.9 0.6,-0.9c0.4,0 0.9,0.2 1.1,0.2c-0.2,-1.2 -0.5,-3.2 -0.2,-3.2c0.3,0 1,2.4 2.4,3.3c0.4,0.3 0.4,0.9 -0.2,1.3c-0.8,0.3 -1.5,0.4 -2.3,0.4zM38.3,14.5c-0.2,-0.8 -1.1,-1.5 -2.1,-1.8c-1.3,-0.3 -2.2,0.3 -2.2,0.3c0,-0.9 0.7,-1.6 1,-1.7c0.4,-0.2 0.6,-0.3 1,-0.3c2.1,0 2.9,1.3 3.6,2.6z" fill="#2e2e2e"></path><path d="M31.9,27c-0.1,0 -0.3,0 -0.4,0v0c-0.7,0 -1.3,-0.2 -1.7,-0.7c-0.8,-0.9 -0.9,-2.1 -0.6,-2.3c0.3,-0.2 0.5,0.5 1.5,0.8c0,0 0.7,0.1 0.9,0.1c0.2,0 0.3,0 0.5,0c1.3,0 2.4,-0.3 2.8,-0.6c0.1,-0.1 0.1,-0.3 0.1,-0.3c0,0 0,-0.3 -1.3,-1.5c-1.3,-1.2 -1.7,-2.7 -1.7,-4c0,-1.5 0.2,-2.5 0.4,-2.5c0.3,0 0.6,3.2 2.7,5c1.5,1.3 1.9,2.2 1.9,3.1c0,0.9 -0.5,1.4 -0.8,1.7c-1.1,1 -2.9,1.2 -4.3,1.2zM31.4,30c-3.1,-0.1 -4.7,-2 -4.7,-2c0,0 3.5,0.3 5.8,0.3v1.7zM33.6,30v-0.9v-0.9c0.2,-0.1 1.8,0.1 3.6,-0.6c-0.4,2.1 -3.5,2.4 -3.6,2.4zM29.1,33c-2.2,0 -3.3,-0.6 -4.1,-3.2c0,0 -0.1,-0.2 0.2,-0.3c0.3,-0.1 0.4,0.1 0.4,0.1c0.4,1.1 2.1,1.4 4.2,1.4c0.1,0 0.2,0 0.3,0c1,0 3,0 3,0c0,0 -0.4,2 -2.5,2c-0.3,0 -1.3,0 -1.5,0z" fill="#2e2e2e"></path><path d="M29,37c-3.2,0 -5.7,-1 -8.4,-3.9c-1.5,-1.6 -1.5,-3.7 -1.3,-3.9c0.2,-0.2 0.5,1.2 1.7,2.5c2.4,2.6 5.8,3.4 8.7,3.2c3.8,-0.3 5.4,-2.5 5.7,-2.7l1.7,1.2c-0.1,0.1 -2.4,3.1 -7.2,3.5c-0.4,0.1 -0.6,0.1 -0.9,0.1zM13.4,29l-0.1,-1l-0.1,-1c0,0 0.2,-0.1 0.6,-0.4c0.3,-0.2 0.6,-0.2 0.9,0l0.5,0.4c0.3,0.3 0.3,0.8 0,1.1c-0.9,0.8 -1.7,0.9 -1.8,0.9zM13,23l1.6,0.6c-0.1,-0.4 -0.6,-2.2 -2,-2.6c-0.4,-0.1 -1.1,0.2 -1.2,0.9c0,0 0,0.2 0,0.3v0.1c0.1,1.7 1.6,2.7 1.6,2.7z" fill="#2e2e2e"></path><path d="M30,42c-1.7,0 -3,-1.3 -3,-3c0,-1.7 1.3,-3 3,-3c1.7,0 3,1.3 3,3c0,1.7 -1.3,3 -3,3zM30,38c-0.5,0 -1,0.4 -1,1c0,0.6 0.4,1 1,1c0.6,0 1,-0.4 1,-1c0,-0.6 -0.4,-1 -1,-1z" fill="#2e2e2e"></path><path d="M39.6,44h-31.2c-0.4,0 -0.8,-0.2 -0.9,-0.6l-1.4,-3.5c-0.1,-0.3 -0.1,-0.4 -0.1,-0.6v-0.4c0.1,-1 5.7,-4.5 7.9,-5.8c-0.7,-1.5 -1.2,-3.1 -1.4,-4.1c-0.8,-0.1 -1.8,-0.5 -3,-1.7c-1.1,-1.1 -1.5,-3 -1.5,-4.3c0,-0.9 0.2,-2.4 1.4,-3.7c-0.6,-2.7 -0.5,-4.8 0.4,-6.2c0.4,-0.7 0.9,-1 1.3,-1.3c0.8,-3.1 4.1,-4.5 4.9,-4.9c0.8,-0.6 4.5,-3.1 10.7,-2.9c8.4,0.3 13.6,5.5 14.2,14.2c0.1,0.8 0.1,1.6 0.1,2.4c0,6.5 -2.3,10.5 -3.5,12.1c4.5,3.1 4.5,3.6 4.5,4.1c0.1,1.3 -1.1,5.2 -1.5,6.4c-0.1,0.5 -0.5,0.8 -0.9,0.8zM9.1,42h29.7c0.6,-1.9 1.1,-3.9 1.2,-4.7c-0.6,-0.6 -2.7,-2.2 -4.6,-3.4c-0.2,-0.2 -0.4,-0.4 -0.4,-0.7c0,-0.3 0.1,-0.6 0.3,-0.8c0,0 3.6,-3.7 3.7,-11.7c0,-0.7 0,-1.5 -0.1,-2.3c-0.7,-10.4 -8,-12.2 -12.3,-12.4c-6,-0.2 -9.4,2.5 -9.5,2.6c-0.1,0.1 -0.2,0.1 -0.3,0.2c0,0 -3.5,1.2 -3.8,3.9c-0.1,0.4 -0.4,0.8 -0.8,0.9c-0.7,0.2 -1.8,1.7 -0.7,5.9c0.1,0.4 0,0.8 -0.3,1c-1,0.8 -1.1,2 -1.1,2.6c0,1.2 0.4,2.4 1,3c1.2,1.3 2.1,1.1 2.1,1.1c0.3,-0.1 0.6,0 0.8,0.1c0.2,0.2 0.4,0.4 0.4,0.7c0,0 0.5,3.1 1.8,5.1c0.1,0.2 0.2,0.5 0.1,0.8c-0.1,0.3 -0.2,0.5 -0.5,0.6c-0.7,0.4 -6.3,4 -7.7,5zM40.1,37.4v0z" fill="#2e2e2e"></path></g></g></svg>