<svg xmlns="http://www.w3.org/2000/svg" xmlns:xlink="http://www.w3.org/1999/xlink" viewBox="0,0,245.89063,256" width="48px" height="48px" fill-rule="nonzero"><g fill="none" fill-rule="nonzero" stroke="none" stroke-width="1" stroke-linecap="butt" stroke-linejoin="miter" stroke-miterlimit="10" stroke-dasharray="" stroke-dashoffset="0" font-family="none" font-weight="none" font-size="none" text-anchor="none" style="mix-blend-mode: normal"><g transform="scale(6.09524,6.09524)"><g><path d="M20.172,27.858l-6.858,-6.858l6.858,-6.858v-14.142l-19.586,19.586c-0.78076,0.781 -0.78076,2.047 0,2.828l19.586,19.586c0,0 3,-2 3,-7c-0.15518,-2.65338 -1.21385,-5.17371 -3,-7.142z" fill="#595959"></path><path d="M14.385,19.667l0.131,0.131l5.656,-5.656v-14.142l-10.601,10.6c0.7971,3.38646 2.45531,6.50965 4.814,9.067z" fill="#646465"></path><path d="M15.832,18.285l0.1,0.1l4.242,-4.242v-14.143l-8.868,8.866c0.55606,3.51442 2.12952,6.78894 4.526,9.419z" fill="#494949"></path><path d="M20.172,14.142v-14.142l-7,7c0.15326,3.71521 1.63307,7.25243 4.171,9.97z" fill="#696969"></path><path d="M15.172,7c0,4.746 3.407,8.371 3.585,8.556l1.415,-1.414v-14.142l-4.822,4.822c-0.11961,0.71981 -0.17915,1.44832 -0.178,2.178z" fill="#676767"></path><path d="M20.172,14.142l6.857,6.858l-6.857,6.858v14.142l19.585,-19.586c0.78076,-0.781 0.78076,-2.047 0,-2.828l-19.585,-19.586c0,0 -3,2 -3,7c0.15518,2.65338 1.21385,5.17371 3,7.142z" fill="#58595b"></path><path d="M25.958,22.333l-0.131,-0.131l-5.655,5.656v14.142l10.6,-10.6c-0.7971,-3.38646 -2.45531,-6.50965 -4.814,-9.067z" fill="#646465"></path><path d="M24.511,23.715l-0.1,-0.1l-4.241,4.242v14.143l8.866,-8.866c-0.55611,-3.5142 -2.12918,-6.78862 -4.525,-9.419z" fill="#494949"></path><path d="M20.172,27.858v14.142l7,-7c-0.15344,-3.71536 -1.63363,-7.25263 -4.172,-9.97z" fill="#696969"></path><path d="M25.172,35c0,-4.746 -3.407,-8.371 -3.586,-8.556l-1.414,1.414v14.142l4.822,-4.822c0.11911,-0.71987 0.17865,-1.44834 0.178,-2.178z" fill="#676767"></path><path d="M20.172,27.858l-6.858,-6.858h-11.142v3l18,18c0,0 3,-2 3,-7c-0.15518,-2.65338 -1.21385,-5.17371 -3,-7.142z" fill="#595959"></path></g></g></g></svg>